<?xml version="1.0" encoding="UTF-8"?> <svg xmlns="http://www.w3.org/2000/svg" xmlns:xlink="http://www.w3.org/1999/xlink" version="1.1" id="Layer_1" x="0px" y="0px" viewBox="0 0 1169.3 305" style="enable-background:new 0 0 1169.3 305;" xml:space="preserve"> <style type="text/css"> .st0{fill-rule:evenodd;clip-rule:evenodd;fill:url(#SVGID_1_);} .st1{fill-rule:evenodd;clip-rule:evenodd;fill:url(#SVGID_00000129900574544365798070000005767327866039841164_);} .st2{fill-rule:evenodd;clip-rule:evenodd;fill:url(#SVGID_00000048462779181264919350000005019607449218945419_);} </style> <g> <linearGradient id="SVGID_1_" gradientUnits="userSpaceOnUse" x1="781.8884" y1="175.0094" x2="782.7856" y2="50.5218"> <stop offset="0" style="stop-color:#C2C3C6"></stop> <stop offset="1" style="stop-color:#FFFFFF"></stop> </linearGradient> <path class="st0" d="M416.2,156.8h-20.9l38-107.9h24.1l38,107.9h-20.8c-15.2-45.4-12-35.8-28.8-85.8H445 C428.5,120.2,431.1,112.4,416.2,156.8L416.2,156.8z M512.1,65.3V49h86.1v16.4h-33.4v91.5h-19.4V65.3H512.1L512.1,65.3z M634.9,156.8V49h19.6v45.7h50V49h19.6v107.9h-19.6V111h-50v45.8H634.9L634.9,156.8z M765.5,156.8V49h19.6v91.5h47.5v16.4H765.5 L765.5,156.8z M869.7,156.8V49h70.2v16.4h-50.6v29.3h47V111h-47v29.4h51v16.4H869.7L869.7,156.8z M975.3,65.3V49h86.1v16.4H1028 v91.5h-19.4V65.3H975.3L975.3,65.3z M1098.1,156.8V49h70.2v16.4h-50.6v29.3h47V111h-47v29.4h51v16.4H1098.1z"></path> <linearGradient id="SVGID_00000155845408294967359650000011715113601096727705_" gradientUnits="userSpaceOnUse" x1="782.3881" y1="175.0156" x2="783.2852" y2="50.5252"> <stop offset="0" style="stop-color:#C2C3C6"></stop> <stop offset="1" style="stop-color:#FFFFFF"></stop> </linearGradient> <path style="fill-rule:evenodd;clip-rule:evenodd;fill:url(#SVGID_00000155845408294967359650000011715113601096727705_);" d=" M443.8,196.3v59.8h-9.6L406,215.4h-0.5v40.7h-10.8v-59.8h9.7l28.1,40.7h0.5v-40.7H443.8L443.8,196.3z M503.2,256.1h-11.6l21-59.8 h13.4l21.1,59.8h-11.5c-8.6-25.5-6.5-19.4-16-47.5h-0.5C510.2,235.2,511.3,232.1,503.2,256.1L503.2,256.1z M595,256.1v-59.8h22.4 c4.6,0,8.4,0.8,11.6,2.4c3.1,1.6,5.5,3.8,7.1,6.7c1.6,2.9,2.4,6.2,2.4,10c0,3.8-0.8,7.1-2.4,10c-1.6,2.8-4,5-7.2,6.5 c-0.4,0.2-0.7,0.3-1.1,0.5l12.9,23.7h-12.1l-11.7-21.9h-11v21.9H595L595,256.1z M605.8,225.2h10c2.7,0,4.9-0.4,6.6-1.1 c1.7-0.8,3-1.8,3.8-3.3c0.8-1.5,1.2-3.2,1.2-5.4c0-2.1-0.4-3.9-1.3-5.4c-0.8-1.5-2.1-2.7-3.8-3.5c-1.7-0.8-3.9-1.2-6.6-1.2h-9.9 V225.2L605.8,225.2z M688.4,256.1v-59.8h22.4c4.6,0,8.4,0.8,11.6,2.4c3.1,1.6,5.5,3.8,7.1,6.7c1.6,2.9,2.4,6.2,2.4,10 c0,3.8-0.8,7.1-2.4,10c-1.6,2.8-4,5-7.2,6.5c-0.4,0.2-0.7,0.3-1.1,0.5l12.9,23.7H722l-11.7-21.9h-11v21.9H688.4L688.4,256.1z M699.2,225.2h10c2.7,0,4.9-0.4,6.6-1.1c1.7-0.8,3-1.8,3.8-3.3c0.8-1.5,1.2-3.2,1.2-5.4c0-2.1-0.4-3.9-1.3-5.4 c-0.8-1.5-2.1-2.7-3.8-3.5c-1.7-0.8-3.9-1.2-6.6-1.2h-9.9V225.2L699.2,225.2z M789.5,256.1H778l21-59.8h13.4l21.1,59.8h-11.5 c-9.1-27.2-6.1-18-16-47.5h-0.5C797.6,231.9,796.7,234.7,789.5,256.1L789.5,256.1z M871.4,205.4v-9.1h47.7v9.1h-18.5v50.7h-10.7 v-50.7H871.4L871.4,205.4z M979.1,196.3v59.8h-10.8v-59.8H979.1L979.1,196.3z M1038.8,196.3l15.6,47h0.6l15.5-47h11.9l-21.1,59.8 H1048l-21-59.8H1038.8L1038.8,196.3z M1130.2,256.1v-59.8h38.9v9.1h-28v16.2h26v9.1h-26V247h28.3v9.1H1130.2z"></path> <linearGradient id="SVGID_00000115498832160618311890000000717017786805864877_" gradientUnits="userSpaceOnUse" x1="172.8271" y1="247.7784" x2="172.8108" y2="117.8636"> <stop offset="0" style="stop-color:#C2C3C6"></stop> <stop offset="0.3617" style="stop-color:#DEDEE0"></stop> <stop offset="0.7568" style="stop-color:#F6F6F7"></stop> <stop offset="1" style="stop-color:#FFFFFF"></stop> </linearGradient> <path style="fill-rule:evenodd;clip-rule:evenodd;fill:url(#SVGID_00000115498832160618311890000000717017786805864877_);" d=" M0,305c59.8-38.2,89.8-57.2,89.8-57.2l65.1-128.2l65.1,128.2l35.4-49.8l54.3,107c-59.8-38.2-89.8-57.2-89.8-57.2l30.4-59.8l0,0 L345.6,0c-59.8,38.2-89.8,57.2-89.8,57.2l-36,70.9l-34.7-68.4L154.8,0l-30.4,59.8L0,305z"></path> </g> </svg> 